<?xml version="1.0" encoding="UTF-8"?>
<!DOCTYPE svg PUBLIC "-//W3C//DTD SVG 1.1//EN" "http://www.w3.org/Graphics/SVG/1.1/DTD/svg11.dtd">
<!-- Creator: CorelDRAW 2020 (64-Bit) -->
<svg xmlns="http://www.w3.org/2000/svg" xml:space="preserve" width="65.024mm" height="20.7904mm" version="1.1" style="shape-rendering:geometricPrecision; text-rendering:geometricPrecision; image-rendering:optimizeQuality; fill-rule:evenodd; clip-rule:evenodd"
viewBox="0 0 4693.46 1500.66"
 xmlns:xlink="http://www.w3.org/1999/xlink"
 xmlns:xodm="http://www.corel.com/coreldraw/odm/2003">
 <defs>
  <style type="text/css">
   <![CDATA[
    .fil1 {fill:url(#id0)}
    .fil0 {fill:url(#id1);fill-opacity:0.501961}
   ]]>
  </style>
  <linearGradient id="id0" gradientUnits="userSpaceOnUse" x1="-0" y1="1071.89" x2="4687.35" y2="1071.89">
   <stop offset="0" style="stop-opacity:1; stop-color:#FEC738"/>
   <stop offset="1" style="stop-opacity:1; stop-color:#FF8D39"/>
  </linearGradient>
  <linearGradient id="id1" gradientUnits="userSpaceOnUse" xlink:href="#id0" x1="-0" y1="747.27" x2="4693.46" y2="747.27">
  </linearGradient>
 </defs>
 <g id="Capa_x0020_1">
  <metadata id="CorelCorpID_0Corel-Layer"/>
  <path class="fil0" d="M4693.46 1482.33l0 -1283.37c0,0 -721.13,-372.79 -1344.48,-97.78 -623.35,275.01 -715.03,433.9 -1845.61,220.01 -1130.58,-213.89 -1503.37,-122.22 -1503.37,-122.22l0 1295.59 4693.46 -12.22z"/>
  <path class="fil1" d="M4687.35 1494.55l0 -653.9c0,0 -525.57,6.11 -1032.81,-110 -507.23,-116.12 -513.35,-146.68 -1283.37,97.78 -586.98,186.34 -2363.22,-202.99 -2365.06,0l-6.11 672.24 4687.35 -6.11z"/>
 </g>
</svg>
